#!OML:ASF H:\MichaelJackson\Top Level 1\Subject 1\Session 1\male.ASF
:FULLY-SPECIFIED
:DEGREES
396
root 3.36143 15.2193 -22.0059 6.18599 -6.82346 6.14895
lowerback -2.32095 -1.04687 -2.67144
upperback -2.92741 -1.45292 -5.4292
thorax -1.79027 -0.744748 -4.11503
lowerneck -8.41089 -0.184335 3.20726
upperneck 2.72314 -0.663787 1.47787
head 2.30701 -0.245395 -0.111712
rclavicle 2.20527e-016 -2.8625e-014
rhumerus 15.3694 -35.5279 -24.4077
rradius 43.4827
rwrist -19.8969
rhand -48.7176 -71.8221
rfingers 7.12502
rthumb -21.3578 -259.335
lclavicle 2.20527e-016 -2.8625e-014
lhumerus -57.0541 -36.6572 113.739
lradius 50.4668
lwrist 23.9832
lhand 35.6613 22.9616
lfingers 7.12502
lthumb 58.7118 38.0266
rfemur -33.7283 -28.7763 -5.2051
rtibia 57.2903
rfoot -17.2299 -1.66288
rtoes -38.6173
lfemur 3.93023 -12.6551 -2.99724
ltibia 16.8357
lfoot -24.3392 11.2854
ltoes -36.1313
397
root 3.31038 15.1661 -22.0144 6.49275 -7.48391 6.03121
lowerback -2.27138 -0.960108 -2.46202
upperback -3.01805 -1.34645 -5.29449
thorax -1.90689 -0.694483 -4.0902
lowerneck -8.17236 0.0700514 3.58577
upperneck 2.65698 -0.340123 1.22652
head 2.24414 -0.0899446 -0.241818
rclavicle -1.0316e-014 -4.69132e-014
rhumerus 15.4244 -35.0549 -23.5273
rradius 45.9978
rwrist -25.8407
rhand -50.3898 -67.5604
rfingers 7.12502
rthumb -22.9632 -263.787
lclavicle -1.0316e-014 -4.69132e-014
lhumerus -57.0263 -36.1286 113.329
lradius 50.5462
lwrist 24.0612
lhand 33.4905 22.0978
lfingers 7.12502
lthumb 56.8147 38.8372
rfemur -34.4643 -29.1069 -4.48162
rtibia 57.5631
rfoot -18.525 -1.97083
rtoes -37.4298
lfemur 3.91853 -12.6474 -3.09412
ltibia 17.2226
lfoot -24.1162 13.795
ltoes -36.5416
398
root 3.25778 15.1206 -22.0229 6.87331 -8.13608 5.89123
lowerback -2.29372 -0.922619 -2.27605
upperback -3.12028 -1.30113 -5.13337
thorax -1.99703 -0.674333 -4.02635
lowerneck -7.95469 0.363274 3.96768
upperneck 2.63556 0.0327572 1.01081
head 2.2036 0.0922878 -0.359678
rclavicle 1.3213e-014 6.04305e-014
rhumerus 15.2161 -33.7176 -22.1464
rradius 48.0872
rwrist -30.201
rhand -49.6585 -62.6789
rfingers 7.12502
rthumb -22.2613 -268.583
lclavicle 1.3213e-014 6.04305e-014
lhumerus -56.8864 -35.3567 112.74
lradius 50.5808
lwrist 24.02
lhand 31.1988 21.3757
lfingers 7.12502
lthumb 54.7814 39.6713
rfemur -35.3016 -29.2524 -3.77704
rtibia 57.8732
rfoot -19.6696 -1.91598
rtoes -36.3566
lfemur 3.77353 -12.5175 -3.07957
ltibia 17.6143
lfoot -23.8669 15.8451
ltoes -36.9015
399
root 3.20386 15.0854 -22.0319 7.30607 -8.75808 5.69043
lowerback -2.35254 -0.923769 -2.0577
upperback -3.21762 -1.30461 -4.94232
thorax -2.06414 -0.679058 -3.95051
lowerneck -7.76212 0.677132 4.34245
upperneck 2.63419 0.43319 0.804565
head 2.17771 0.289132 -0.472797
rclavicle 1.04983e-015 -6.99722e-014
rhumerus 14.7283 -31.6513 -20.3753
rradius 49.9773
rwrist -32.9492
rhand -47.3868 -58.9635
rfingers 7.12502
rthumb -20.0791 -447.946
lclavicle 1.04983e-015 -6.99722e-014
lhumerus -56.6684 -34.4143 112.019
lradius 50.5547
lwrist 23.8472
lhand 28.8237 20.7171
lfingers 7.12502
lthumb 52.6463 40.4308
rfemur -36.2359 -29.2752 -3.02277
rtibia 58.2264
rfoot -20.5849 -1.61696
rtoes -35.4813
lfemur 3.49669 -12.2352 -2.90435
ltibia 18.0378
lfoot -23.6085 17.3992
ltoes -37.2386
400
root 3.14863 15.0614 -22.0418 7.75676 -9.33793 5.38978
lowerback -2.39213 -0.945408 -1.7486
upperback -3.29597 -1.33549 -4.72443
thorax -2.12519 -0.699184 -3.89791
lowerneck -7.605 0.990799 4.71556
upperneck 2.63382 0.833594 0.582796
head 2.16173 0.485823 -0.591201
rclavicle 1.31571e-014 9.54166e-015
rhumerus 14.0298 -29.1426 -18.4578
rradius 51.8827
rwrist -34.0293
rhand -44.3883 -56.6343
rfingers 7.12502
rthumb -17.195 -445.894
lclavicle 1.31571e-014 9.54166e-015
lhumerus -56.4023 -33.368 111.19
lradius 50.4728
lwrist 23.5372
lhand 26.4391 20.0898
lfingers 7.12502
lthumb 50.479 41.0574
rfemur -37.226 -29.2208 -2.15111
rtibia 58.5992
rfoot -21.2283 -1.26969
rtoes -34.9083
lfemur 3.12657 -11.7591 -2.53355
ltibia 18.5161
lfoot -23.3153 18.4701
ltoes -37.6075
401
root 3.09123 15.0503 -22.053 8.19468 -9.84023 4.96587
lowerback -2.3844 -0.98092 -1.32138
upperback -3.3225 -1.38446 -4.47995
thorax -2.16241 -0.730407 -3.88388
lowerneck -7.51219 1.28803 5.08213
upperneck 2.60809 1.21159 0.334674
head 2.15175 0.670343 -0.718303
rclavicle -2.53202e-014 -5.56597e-015
rhumerus 13.1966 -26.4955 -16.6056
rradius 53.9391
rwrist -33.5423
rhand -41.9027 -55.472
rfingers 7.12502
rthumb -14.8014 -444.923
lclavicle -2.53202e-014 -5.56597e-015
lhumerus -56.0718 -32.2917 110.268
lradius 50.3392
lwrist 23.089
lhand 24.1102 19.5323
lfingers 7.12502
lthumb 48.343 41.5835
rfemur -38.1793 -29.1165 -1.12728
rtibia 58.932
rfoot -21.6128 -1.00805
rtoes -34.6229
lfemur 2.66834 -11.0356 -1.93994
ltibia 19.0875
lfoot -22.9603 19.0385
ltoes -37.9266
402
root 3.03075 15.0537 -22.0657 8.58924 -10.2396 4.41399
lowerback -2.29135 -1.02627 -0.774954
upperback -3.29063 -1.4468 -4.21128
thorax -2.19076 -0.770232 -3.91099
lowerneck -7.45057 1.55698 5.43091
upperneck 2.52939 1.55367 0.072172
head 2.13176 0.835479 -0.848809
rclavicle -5.59082e-015 -1.11319e-014
rhumerus 12.2701 -23.9463 -14.9816
rradius 56.2314
rwrist -31.754
rhand -40.1194 -55.151
rfingers 7.12502
rthumb -13.0828 -444.721
lclavicle -5.59082e-015 -1.11319e-014
lhumerus -55.697 -31.2088 109.27
lradius 50.1567
lwrist 22.4484
lhand 21.8881 18.9119
lfingers 7.12502
lthumb 46.2897 41.8848
rfemur -38.9891 -28.9722 0.0490369
rtibia 59.1536
rfoot -21.8138 -0.857981
rtoes -34.3746
lfemur 2.12501 -10.0654 -1.13533
ltibia 19.8033
lfoot -22.5039 19.1627
ltoes -38.213
403
root 2.96622 15.0714 -22.0795 8.90886 -10.5434 3.75812
lowerback -2.08866 -1.07044 -0.141377
upperback -3.20859 -1.50734 -3.93167
thorax -2.23166 -0.810477 -3.97437
lowerneck -7.34602 1.78297 5.76491
upperneck 2.37079 1.8442 -0.191288
head 2.07821 0.973204 -0.979763
rclavicle 2.90723e-015 -1.35174e-014
rhumerus 11.2376 -21.6384 -13.6848
rradius 58.8106
rwrist -29.1152
rhand -39.1515 -55.3845
rfingers 7.12502
rthumb -12.1497 -445.012
lclavicle 2.90723e-015 -1.35174e-014
lhumerus -55.3203 -30.1413 108.236
lradius 49.9129
lwrist 21.5943
lhand 19.7061 18.1088
lfingers 7.12502
lthumb 44.2611 41.8936
rfemur -39.5601 -28.7599 1.33339
rtibia 59.2003
rfoot -21.8966 -0.89506
rtoes -34.2254
lfemur 1.49882 -8.85238 -0.177087
ltibia 20.734
lfoot -21.9118 18.9631
ltoes -38.4482
